REM DIRINDEX 1\2,1\3
REM DIRNAME cjc102,folder01,folder02
TITLE ""
FILE "CD1Track44.mp3" MP3
  TRACK 01 AUDIO
    TITLE "0:"
    INDEX 01 00:00:00
  TRACK 02 AUDIO
    TITLE "2:cjc102_2147"
    INDEX 01 00:00:27
  TRACK 03 AUDIO
    TITLE "0:"
    INDEX 01 00:01:26
  TRACK 04 AUDIO
    TITLE "3:cjc102_2148"
    INDEX 01 00:01:30
  TRACK 05 AUDIO
    TITLE "0:"
    INDEX 01 00:02:63
  TRACK 06 AUDIO
    TITLE "3:cjc102_2149"
    INDEX 01 00:03:21
  TRACK 07 AUDIO
    TITLE "0:"
    INDEX 01 00:06:67
  TRACK 08 AUDIO
    TITLE "2:cjc102_2150"
    INDEX 01 00:06:71
  TRACK 09 AUDIO
    TITLE "0:"
    INDEX 01 00:08:17
  TRACK 10 AUDIO
    TITLE "3:cjc102_2151"
    INDEX 01 00:08:54
  TRACK 11 AUDIO
    TITLE "0:"
    INDEX 01 00:09:38
  TRACK 12 AUDIO
    TITLE "2:cjc102_2152"
    INDEX 01 00:09:40
  TRACK 13 AUDIO
    TITLE "0:"
    INDEX 01 00:10:68
  TRACK 14 AUDIO
    TITLE "3:cjc102_2153"
    INDEX 01 00:11:52
  TRACK 15 AUDIO
    TITLE "0:"
    INDEX 01 00:12:36
  TRACK 16 AUDIO
    TITLE "2:cjc102_2154"
    INDEX 01 00:12:58
  TRACK 17 AUDIO
    TITLE "0:"
    INDEX 01 00:14:19
  TRACK 18 AUDIO
    TITLE "3:cjc102_2155"
    INDEX 01 00:15:11
  TRACK 19 AUDIO
    TITLE "0:"
    INDEX 01 00:15:74
  TRACK 20 AUDIO
    TITLE "2:cjc102_2156"
    INDEX 01 00:16:12
  TRACK 21 AUDIO
    TITLE "0:"
    INDEX 01 00:17:29
  TRACK 22 AUDIO
    TITLE "3:cjc102_2157"
    INDEX 01 00:17:63
  TRACK 23 AUDIO
    TITLE "0:"
    INDEX 01 00:18:48
  TRACK 24 AUDIO
    TITLE "2:cjc102_2158"
    INDEX 01 00:18:52
  TRACK 25 AUDIO
    TITLE "0:"
    INDEX 01 00:20:06
  TRACK 26 AUDIO
    TITLE "3:cjc102_2159"
    INDEX 01 00:20:53
  TRACK 27 AUDIO
    TITLE "0:"
    INDEX 01 00:21:33
  TRACK 28 AUDIO
    TITLE "2:cjc102_2160"
    INDEX 01 00:21:43
  TRACK 29 AUDIO
    TITLE "0:"
    INDEX 01 00:22:44
  TRACK 30 AUDIO
    TITLE "3:cjc102_2161"
    INDEX 01 00:23:26
  TRACK 31 AUDIO
    TITLE "0:"
    INDEX 01 00:24:20
  TRACK 32 AUDIO
    TITLE "2:cjc102_2162"
    INDEX 01 00:24:25
  TRACK 33 AUDIO
    TITLE "0:"
    INDEX 01 00:25:56
  TRACK 34 AUDIO
    TITLE "3:cjc102_2163"
    INDEX 01 00:26:73
  TRACK 35 AUDIO
    TITLE "0:"
    INDEX 01 00:27:69
  TRACK 36 AUDIO
    TITLE "2:cjc102_2164"
    INDEX 01 00:28:08
  TRACK 37 AUDIO
    TITLE "0:"
    INDEX 01 00:29:21
  TRACK 38 AUDIO
    TITLE "3:cjc102_2165"
    INDEX 01 00:30:12
  TRACK 39 AUDIO
    TITLE "0:"
    INDEX 01 00:30:69
  TRACK 40 AUDIO
    TITLE "2:cjc102_2166"
    INDEX 01 00:30:71
  TRACK 41 AUDIO
    TITLE "0:"
    INDEX 01 00:32:09
  TRACK 42 AUDIO
    TITLE "3:cjc102_2167"
    INDEX 01 00:33:42
  TRACK 43 AUDIO
    TITLE "0:"
    INDEX 01 00:34:14
  TRACK 44 AUDIO
    TITLE "2:cjc102_2168"
    INDEX 01 00:34:16
  TRACK 45 AUDIO
    TITLE "0:"
    INDEX 01 00:35:21
  TRACK 46 AUDIO
    TITLE "3:cjc102_2169"
    INDEX 01 00:36:29
  TRACK 47 AUDIO
    TITLE "0:"
    INDEX 01 00:37:22
  TRACK 48 AUDIO
    TITLE "2:cjc102_2170"
    INDEX 01 00:37:24
  TRACK 49 AUDIO
    TITLE "0:"
    INDEX 01 00:38:33
  TRACK 50 AUDIO
    TITLE "3:cjc102_2171"
    INDEX 01 00:39:13
  TRACK 51 AUDIO
    TITLE "0:"
    INDEX 01 00:40:30
  TRACK 52 AUDIO
    TITLE "2:cjc102_2172"
    INDEX 01 00:40:36
  TRACK 53 AUDIO
    TITLE "0:"
    INDEX 01 00:41:51
  TRACK 54 AUDIO
    TITLE "3:cjc102_2173"
    INDEX 01 00:42:31
  TRACK 55 AUDIO
    TITLE "0:"
    INDEX 01 00:43:35
  TRACK 56 AUDIO
    TITLE "2:cjc102_2174"
    INDEX 01 00:43:42
  TRACK 57 AUDIO
    TITLE "0:"
    INDEX 01 00:44:65
  TRACK 58 AUDIO
    TITLE "3:cjc102_2175"
    INDEX 01 00:45:59
  TRACK 59 AUDIO
    TITLE "0:"
    INDEX 01 00:46:72
  TRACK 60 AUDIO
    TITLE "2:cjc102_2176"
    INDEX 01 00:47:03
  TRACK 61 AUDIO
    TITLE "0:"
    INDEX 01 00:47:72
  TRACK 62 AUDIO
    TITLE "3:cjc102_2177"
    INDEX 01 00:49:20
  TRACK 63 AUDIO
    TITLE "0:"
    INDEX 01 00:50:21
  TRACK 64 AUDIO
    TITLE "2:cjc102_2178"
    INDEX 01 00:50:23
  TRACK 65 AUDIO
    TITLE "0:"
    INDEX 01 00:51:32
  TRACK 66 AUDIO
    TITLE "3:cjc102_2179"
    INDEX 01 00:52:37
  TRACK 67 AUDIO
    TITLE "0:"
    INDEX 01 00:53:45
  TRACK 68 AUDIO
    TITLE "2:cjc102_2180"
    INDEX 01 00:53:55
  TRACK 69 AUDIO
    TITLE "0:"
    INDEX 01 00:55:03
  TRACK 70 AUDIO
    TITLE "3:cjc102_2181"
    INDEX 01 00:56:00
  TRACK 71 AUDIO
    TITLE "0:"
    INDEX 01 00:57:11
  TRACK 72 AUDIO
    TITLE "2:cjc102_2182"
    INDEX 01 00:57:29
  TRACK 73 AUDIO
    TITLE "0:"
    INDEX 01 00:58:34
  TRACK 74 AUDIO
    TITLE "3:cjc102_2183"
    INDEX 01 01:00:25
  TRACK 75 AUDIO
    TITLE "0:"
    INDEX 01 01:01:36
  TRACK 76 AUDIO
    TITLE "2:cjc102_2184"
    INDEX 01 01:01:38
  TRACK 77 AUDIO
    TITLE "0:"
    INDEX 01 01:02:42
  TRACK 78 AUDIO
    TITLE "2:cjc102_2185"
    INDEX 01 01:03:08
  TRACK 79 AUDIO
    TITLE "0:"
    INDEX 01 01:04:29
  TRACK 80 AUDIO
    TITLE "3:cjc102_2186"
    INDEX 01 01:05:32
  TRACK 81 AUDIO
    TITLE "0:"
    INDEX 01 01:06:53
  TRACK 82 AUDIO
    TITLE "2:cjc102_2187"
    INDEX 01 01:06:57
  TRACK 83 AUDIO
    TITLE "0:"
    INDEX 01 01:07:53
  TRACK 84 AUDIO
    TITLE "2:cjc102_2188"
    INDEX 01 01:08:31
  TRACK 85 AUDIO
    TITLE "0:"
    INDEX 01 01:09:36
  TRACK 86 AUDIO
    TITLE "3:cjc102_2189"
    INDEX 01 01:10:65
  TRACK 87 AUDIO
    TITLE "0:"
    INDEX 01 01:12:11
  TRACK 88 AUDIO
    TITLE "2:cjc102_2190"
    INDEX 01 01:12:19
  TRACK 89 AUDIO
    TITLE "0:"
    INDEX 01 01:13:24
  TRACK 90 AUDIO
    TITLE "2:cjc102_2191"
    INDEX 01 01:13:67
  TRACK 91 AUDIO
    TITLE "0:"
    INDEX 01 01:14:74
  TRACK 92 AUDIO
    TITLE "3:cjc102_2192"
    INDEX 01 01:15:33
  TRACK 93 AUDIO
    TITLE "0:"
    INDEX 01 01:16:42
  TRACK 94 AUDIO
    TITLE "2:cjc102_2193"
    INDEX 01 01:16:60
  TRACK 95 AUDIO
    TITLE "0:"
    INDEX 01 01:18:02
  TRACK 96 AUDIO
    TITLE "2:cjc102_2194"
    INDEX 01 01:18:45
  TRACK 97 AUDIO
    TITLE "0:"
    INDEX 01 01:19:74
  TRACK 98 AUDIO
    TITLE "3:cjc102_2195"
    INDEX 01 01:20:59
  TRACK 99 AUDIO
    TITLE "0:"
    INDEX 01 01:22:11
  TRACK 100 AUDIO
    TITLE "2:cjc102_2196"
    INDEX 01 01:22:13
  TRACK 101 AUDIO
    TITLE "0:"
    INDEX 01 01:23:28
  TRACK 102 AUDIO
    TITLE "2:cjc102_2197"
    INDEX 01 01:23:69
  TRACK 103 AUDIO
    TITLE "0:"
    INDEX 01 01:25:19
  TRACK 104 AUDIO
    TITLE "3:cjc102_2198"
    INDEX 01 01:25:70
  TRACK 105 AUDIO
    TITLE "0:"
    INDEX 01 01:27:18
  TRACK 106 AUDIO
    TITLE "2:cjc102_2199"
    INDEX 01 01:27:28
  TRACK 107 AUDIO
    TITLE "0:"
    INDEX 01 01:28:41
  TRACK 108 AUDIO
    TITLE "2:cjc102_2200"
    INDEX 01 01:29:13
  TRACK 109 AUDIO
    TITLE "0:"
    INDEX 01 01:30:30
  TRACK 110 AUDIO
    TITLE "3:cjc102_2201"
    INDEX 01 01:31:41
  TRACK 111 AUDIO
    TITLE "0:"
    INDEX 01 01:32:68
  TRACK 112 AUDIO
    TITLE "2:cjc102_2202"
    INDEX 01 01:33:07
  TRACK 113 AUDIO
    TITLE "0:"
    INDEX 01 01:35:37
  TRACK 114 AUDIO
    TITLE "3:cjc102_2203"
    INDEX 01 01:36:35
  TRACK 115 AUDIO
    TITLE "0:"
    INDEX 01 01:37:66
  TRACK 116 AUDIO
    TITLE "2:cjc102_2204"
    INDEX 01 01:38:34
  TRACK 117 AUDIO
    TITLE "0:"
    INDEX 01 01:41:67
  TRACK 118 AUDIO
    TITLE "3:cjc102_2205"
    INDEX 01 01:42:73
  TRACK 119 AUDIO
    TITLE "0:"
    INDEX 01 01:44:17
  TRACK 120 AUDIO
    TITLE "2:cjc102_2206"
    INDEX 01 01:44:40
  TRACK 121 AUDIO
    TITLE "0:"
    INDEX 01 01:48:50
